<?xml version="1.0" encoding="UTF-8"?>
<svg version="1.1" xmlns="http://www.w3.org/2000/svg" width="1000" height="1000">
<path d="M0 0 C330 0 660 0 1000 0 C1000 330 1000 660 1000 1000 C670 1000 340 1000 0 1000 C0 670 0 340 0 0 Z " fill="#FEFEFE" transform="translate(0,0)"/>
<path d="M0 0 C159.72 0 319.44 0 484 0 C484 127.71 484 255.42 484 387 C363.11798433 390.58949007 363.11798433 390.58949007 312.03320312 391.34570312 C301.0902636 391.50853393 290.14740005 391.67556001 279.20468374 391.85281345 C277.72125967 391.87683116 276.23783344 391.9007162 274.75440506 391.92446689 C251.31204609 392.30088629 227.88943423 392.96588141 204.45890384 393.79045265 C180.27300305 394.64001223 156.09788706 395.17999568 131.89732832 395.35843412 C128.44030882 395.38406075 124.983325 395.41304182 121.52635002 395.44407463 C120.84630803 395.45007528 120.16626604 395.45607593 119.46561672 395.46225841 C109.38359862 395.55919103 99.33834389 395.91189882 89.26715279 396.40997505 C40.34066825 398.76143794 -2.89736827 399.3096822 -40.69241496 365.15976135 C-62.59327733 345.12355015 -83.76018874 322.15333363 -101 298 C-101 297.67 -101 297.34 -101 297 C12.85 296.67 126.7 296.34 244 296 C183.61 235.61 123.22 175.22 61 113 C62.5340736 107.63074239 64.14297114 102.37132797 66.0390625 97.125 C71.31811073 78.36815826 66.70400779 56.93683276 57.86328125 40.1640625 C55.27005409 35.76046921 52.30754744 31.88171827 49 28 C48.278125 27.01 47.55625 26.02 46.8125 25 C35.38992419 11.61185108 16.86289322 4.15599103 0 1 C0 0.67 0 0.34 0 0 Z " fill="#FEFEFE" transform="translate(516,0)"/>
<path d="M0 0 C1.80210937 0.65355469 1.80210937 0.65355469 3.640625 1.3203125 C11.66881321 4.50030913 18.30691073 8.5751872 25 14 C25.70640625 14.54269531 26.4128125 15.08539062 27.140625 15.64453125 C40.64082971 26.56694097 50.95313289 44.72444163 53 62 C53.30426749 66.56401234 53.40548733 71.11403947 53.4375 75.6875 C53.44773193 76.81567139 53.45796387 77.94384277 53.46850586 79.10620117 C53.3757989 87.98337923 52.31130933 96.53678199 48.1875 104.5 C47.795625 105.325 47.40375 106.15 47 107 C48.13968675 110.02733035 49.80279549 112.05147868 52.07283974 114.31614208 C52.70731643 114.95398418 53.34179313 115.59182627 53.99549639 116.24899691 C54.69393235 116.94092507 55.39236831 117.63285323 56.11196899 118.3457489 C56.85280082 119.08758401 57.59363265 119.82941912 58.35691392 120.59373409 C60.84731375 123.08508861 63.34480069 125.56921588 65.84228516 128.0534668 C67.62624501 129.83522612 69.40975793 131.61743302 71.19285583 133.40005493 C75.0363051 137.24056789 78.88276509 141.0780254 82.73192215 144.912817 C88.29765218 150.45787268 93.85738034 156.00891469 99.41556196 161.56153546 C108.43414391 170.57086177 117.45681801 179.57607776 126.48242188 188.57836914 C127.29267728 189.38653458 127.29267728 189.38653458 128.11930148 190.21102659 C128.66016696 190.75049654 129.20103244 191.28996649 129.75828779 191.84578401 C137.43267687 199.50039061 145.10608696 207.15597682 152.77832031 214.81274414 C153.31844107 215.35177404 153.85856182 215.89080395 154.41504987 216.44616809 C163.407178 225.4202996 172.39729441 234.39644467 181.38637578 243.37362796 C186.93497532 248.91462135 192.48564741 254.45352421 198.03898178 259.9897723 C202.28718933 264.22508845 206.53299622 268.46280239 210.77792549 272.70140457 C212.5250559 274.44504799 214.27305804 276.18781841 216.02196693 277.92967796 C218.39758194 280.2959234 220.77016914 282.66516275 223.14199829 285.03520203 C223.84489569 285.73382235 224.5477931 286.43244267 225.27199042 287.1522333 C225.90125162 287.78225215 226.53051282 288.41227101 227.17884254 289.06138134 C227.72759344 289.60866837 228.27634433 290.15595539 228.84172404 290.71982688 C230 292 230 292 230 293 C116.15 293.33 2.3 293.66 -115 294 C-42.33265038 379.46165553 -42.33265038 379.46165553 45.29022217 392.8079834 C49.87699118 392.63369237 54.42791503 392.40419651 59.00488281 392.11132812 C61.57132382 391.99790403 64.13809332 391.89172721 66.70510483 391.79204559 C70.65005187 391.63741198 74.59419927 391.47821846 78.53794312 391.2952733 C92.15460263 390.66406146 105.7377753 390.64467216 119.37207031 390.60351562 C155.08986284 390.21977909 190.79604505 389.06562545 226.5 388 C306.525 386.35 386.55 384.7 469 383 C469 574.07 469 765.14 469 962 C466.69 960.02 464.38 958.04 462 956 C460.16135501 954.57166818 458.31186772 953.15715956 456.45066738 951.7583456 C410.54773502 916.45279562 410.54773502 916.45279562 406.62364644 891.20515507 C404.38420243 872.78398218 406.41894395 853.94388231 408.13860238 835.55969274 C409.04866726 825.53011547 409.42628883 815.4861104 409.81297302 805.42527771 C409.96565575 801.63148366 410.12266 797.83788069 410.28171444 794.04434872 C410.32143918 793.09686409 410.36116392 792.14937947 410.40209245 791.17318319 C410.85993134 780.47787222 411.44749858 769.79070267 412.0769043 759.10424805 C412.13401008 758.13258235 412.19111587 757.16091665 412.24995213 756.15980654 C413.0609727 742.51070495 414.0655418 728.88392088 415.16562733 715.25540385 C421.19251141 640.16235268 426.95253214 565.62436465 375.28797913 504.79579163 C345.90214746 471.05762803 309.39039649 440.65853083 263.3035326 436.85885429 C228.5506945 434.50793863 193.36600289 439.21909525 158.94308186 443.60214043 C117.44617432 448.8842438 76.07551994 451.79874291 34.2265625 451.62890625 C33.2918805 451.62654778 32.35719851 451.62418932 31.39419281 451.62175938 C-43.87186636 451.34718687 -91.85586267 426.34764415 -144.64194202 373.68937935 C-155.86560526 362.38202625 -166.47824435 350.51957492 -177 338.5625 C-178.10639032 337.30947968 -179.2128837 336.05655035 -180.31947994 334.80371189 C-259 245.59564547 -259 245.59564547 -259 234 C-145.15 233.67 -31.3 233.34 86 233 C58.94 205.94 31.88 178.88 4 151 C4 150.34 4 149.68 4 149 C3.27554687 149.27714844 2.55109375 149.55429688 1.8046875 149.83984375 C0.83789062 150.20207031 -0.12890625 150.56429687 -1.125 150.9375 C-2.07632812 151.29714844 -3.02765625 151.65679687 -4.0078125 152.02734375 C-21.70820285 157.78112599 -44.31014235 155.34982105 -60.80322266 147.31494141 C-81.26325127 136.77959184 -95.91719698 118.85236902 -103 97 C-104.80420237 89.99394002 -105.32375496 83.27850901 -105.25 76.0625 C-105.24250732 75.09320557 -105.23501465 74.12391113 -105.22729492 73.12524414 C-104.90765488 51.92364484 -96.73563034 34.18618018 -82 19 C-81.44828125 18.37480469 -80.8965625 17.74960937 -80.328125 17.10546875 C-60.88257205 -4.21725392 -26.30332418 -9.5810751 0 0 Z " fill="#CF23CA" transform="translate(531,4)"/>
<path d="M0 0 C2.31 1.98 4.62 3.96 7 6 C8.83782748 7.42280962 10.68693069 8.83120076 12.54821682 10.22318172 C58.44040579 45.36410248 58.44040579 45.36410248 62.38606614 70.94138831 C64.64695538 89.654748 62.6267133 108.79062146 60.92492098 127.47154734 C60.10831026 136.71192534 59.72366769 145.95879004 59.37836765 155.22698181 C58.75809056 171.87450032 57.98829693 188.51016729 57.03295898 205.1418457 C56.97637782 206.12898909 56.91979666 207.11613249 56.86150091 208.13318931 C55.94427322 223.96339813 54.76200455 239.76654193 53.52428032 255.57436771 C52.24399008 272.08420554 51.4569429 288.57966137 51.02564758 305.13314623 C50.76958955 314.35233858 50.32001793 323.44880603 49.24524117 332.61186409 C44.25264583 376.24334154 56.80017467 408.50334154 83.48135747 442.59422524 C118.42559651 486.55854091 160.15421711 526.1762492 217.77719027 533.23558927 C252.25644557 537.13079737 287.32607451 535.4097057 321.88129237 533.53956972 C336.46492584 532.75179026 351.02809971 532.27285468 365.63142967 532.06038475 C366.61524391 532.0460293 367.59905814 532.03167386 368.61268493 532.0168834 C373.6145922 531.94565506 378.616554 531.87974974 383.61856499 531.81626644 C418.68089644 531.36555992 453.71276841 530.42525156 488.75366211 529.13647461 C490.85167758 529.05948442 492.94969355 528.98250784 495.04771002 528.90554484 C496.0872213 528.8673961 497.12673258 528.82924736 498.1977442 528.7899426 C503.45749711 528.59699133 508.71726434 528.40443754 513.97705078 528.21240234 C515.02011447 528.17427302 516.06317816 528.1361437 517.13784983 528.09685894 C541.48794747 527.20969738 565.84203067 526.48627867 590.19897461 525.81616211 C591.24577799 525.78724524 592.29258138 525.75832836 593.37110607 525.72853522 C617.33861424 525.0677326 641.30666465 524.47554748 665.27875805 524.00812817 C666.28947359 523.98834734 667.30018913 523.96856652 668.34153241 523.94818628 C677.43819167 523.77066715 686.5348877 523.59549986 695.63184967 523.43414821 C718.150046 523.0343947 740.64382876 522.47569079 763.14485356 521.4955661 C778.77502579 520.81504869 794.4014469 520.31602379 810.04336277 520.00111309 C818.4833512 519.82462402 826.89695581 519.56064355 835.32293129 519.03322792 C888.486808 515.7716232 888.486808 515.7716232 910.35957933 534.51996487 C924.96106782 547.45982458 938.42894628 562.27986433 950 578 C950 578.33 950 578.66 950 579 C636.5 579 323 579 0 579 C0 387.93 0 196.86 0 0 Z " fill="#00DAD8" transform="translate(0,421)"/>
<path d="M0 0 C4.09620634 1.62358696 6.83447899 4.56680396 9.87011719 7.64306641 C10.73418434 8.50669548 10.73418434 8.50669548 11.6157074 9.38777161 C13.51421037 11.28766537 15.40553522 13.19453991 17.296875 15.1015625 C18.61351582 16.42193434 19.93059957 17.74186464 21.24810791 19.06137085 C24.71145037 22.53234276 28.16874418 26.0092793 31.62481689 29.48748779 C35.1537998 33.03694385 38.6884642 36.58073201 42.22265625 40.125 C49.15401308 47.07779463 56.07899377 54.03690309 63 61 C67.05621997 59.39004265 69.73260298 56.50111333 72.71484375 53.43286133 C73.55464279 52.58145317 73.55464279 52.58145317 74.41140747 51.71284485 C75.62375365 50.48287368 76.83387831 49.25070974 78.04202271 48.0166111 C79.95315155 46.06605682 81.87171912 44.12312188 83.79272461 42.18229675 C89.25251917 36.66444737 94.70244989 31.13700683 100.13769531 25.5949707 C103.46440462 22.20397222 106.80307078 18.82514873 110.14968872 15.45380211 C111.4238408 14.16535549 112.69329512 12.87224607 113.95797729 11.57450294 C115.72248895 9.76449217 117.50172295 7.97029614 119.28515625 6.17895508 C120.06767258 5.36476105 120.06767258 5.36476105 120.86599731 4.53411865 C124.41671806 1.01239401 124.41671806 1.01239401 127.10978699 0.95516968 C129.42227357 2.23341509 131.07497031 3.67874197 132.95825195 5.53833008 C134.10382317 6.66003349 134.10382317 6.66003349 135.27253723 7.80439758 C136.49308052 9.02463875 136.49308052 9.02463875 137.73828125 10.26953125 C138.57844284 11.10207932 139.41860443 11.93462738 140.28422546 12.79240417 C142.05736683 14.55473955 143.82654424 16.32107083 145.59204102 18.09106445 C148.30544506 20.80544253 151.039464 23.49780114 153.77539062 26.18945312 C155.49348658 27.90234379 157.21032733 29.6164946 158.92578125 31.33203125 C159.74959793 32.13945267 160.57341461 32.94687408 161.42219543 33.77876282 C162.17014877 34.53602158 162.91810211 35.29328033 163.6887207 36.07348633 C164.35394241 36.73665359 165.01916412 37.39982086 165.70454407 38.08308411 C167 40 167 40 167.05255127 41.87852478 C165.45725964 45.09392317 163.00369982 47.38672708 160.47045898 49.87011719 C159.89485229 50.44616196 159.31924561 51.02220673 158.72619629 51.6157074 C156.82318708 53.51662777 154.90977485 55.40670358 152.99609375 57.296875 C151.67407568 58.61329748 150.35271872 59.93038417 149.03199768 61.24810791 C145.55497311 64.71368093 142.06903342 68.17015039 138.58117676 71.62481689 C135.02331141 75.15198828 131.4739288 78.68767287 127.92382812 82.22265625 C120.9575066 89.15680811 113.98173961 96.08137469 107 103 C108.60995735 107.05621997 111.49888667 109.73260298 114.56713867 112.71484375 C115.41854683 113.55464279 115.41854683 113.55464279 116.28715515 114.41140747 C117.51712632 115.62375365 118.74929026 116.83387831 119.9833889 118.04202271 C121.93394318 119.95315155 123.87687812 121.87171912 125.81770325 123.79272461 C131.33555263 129.25251917 136.86299317 134.70244989 142.4050293 140.13769531 C145.79602778 143.46440462 149.17485127 146.80307078 152.54619789 150.14968872 C153.83464451 151.4238408 155.12775393 152.69329512 156.42549706 153.95797729 C158.23550783 155.72248895 160.02970386 157.50172295 161.82104492 159.28515625 C162.63523895 160.06767258 162.63523895 160.06767258 163.46588135 160.86599731 C166.98481615 164.41390525 166.98481615 164.41390525 167.05453491 167.1050415 C165.73883384 169.4693055 164.23207187 171.12707995 162.30639648 173.03417969 C161.52566269 173.81468689 160.74492889 174.59519409 159.9405365 175.39935303 C159.09262039 176.23178528 158.24470428 177.06421753 157.37109375 177.921875 C156.50686295 178.78186096 155.64263214 179.64184692 154.75221252 180.52789307 C151.98759388 183.27570575 149.21273138 186.01291036 146.4375 188.75 C144.56246749 190.60998825 142.68810982 192.47065707 140.81445312 194.33203125 C136.21743983 198.89594973 131.61197045 203.45119938 127 208 C122.90379366 206.37641304 120.16552101 203.43319604 117.12988281 200.35693359 C116.55383804 199.78118088 115.97779327 199.20542816 115.3842926 198.61222839 C113.48578963 196.71233463 111.59446478 194.80546009 109.703125 192.8984375 C108.38648418 191.57806566 107.06940043 190.25813536 105.75189209 188.93862915 C102.28854963 185.46765724 98.83125582 181.9907207 95.37518311 178.51251221 C91.8462002 174.96305615 88.3115358 171.41926799 84.77734375 167.875 C77.84598692 160.92220537 70.92100623 153.96309691 64 147 C56.97694971 152.74088886 50.6765639 159.19693456 44.28515625 165.6171875 C43.06226684 166.84194489 41.8391543 168.06647953 40.61582947 169.290802 C37.41614044 172.49428634 34.21946752 175.70076366 31.0234375 178.90789795 C27.753788 182.18782616 24.4812616 185.46488126 21.20898438 188.7421875 C14.80318881 195.15866765 8.40057951 201.578317 2 208 C-1.27196452 206.56741228 -3.43203956 204.81174684 -5.94238281 202.28466797 C-6.70286926 201.52403046 -7.46335571 200.76339294 -8.24688721 199.97970581 C-9.05744568 199.15882477 -9.86800415 198.33794373 -10.703125 197.4921875 C-11.54091492 196.65156769 -12.37870483 195.81094788 -13.24188232 194.94485474 C-15.91598431 192.25955999 -18.58304724 189.56739345 -21.25 186.875 C-23.06204062 185.05292845 -24.87453518 183.23130823 -26.6875 181.41015625 C-31.13028036 176.94532748 -35.56730165 172.47483717 -40 168 C-38.37641304 163.90379366 -35.43319604 161.16552101 -32.35693359 158.12988281 C-31.49330452 157.26581566 -31.49330452 157.26581566 -30.61222839 156.3842926 C-28.71233463 154.48578963 -26.80546009 152.59446478 -24.8984375 150.703125 C-23.57806566 149.38648418 -22.25813536 148.06940043 -20.93862915 146.75189209 C-17.46765724 143.28854963 -13.9907207 139.83125582 -10.51251221 136.37518311 C-6.96305615 132.8462002 -3.41926799 129.3115358 0.125 125.77734375 C7.07779463 118.84598692 14.03690309 111.92100623 21 105 C15.19861308 97.89487994 8.65610323 91.5298138 2.1640625 85.06640625 C0.9168849 83.82109655 -0.33007001 82.57556379 -1.57681274 81.32981873 C-4.83948105 78.07094634 -8.10514251 74.81508982 -11.37145996 71.55987549 C-14.71171062 68.22990221 -18.04908931 64.89705327 -21.38671875 61.56445312 C-27.92168893 55.04016861 -34.45982831 48.51907004 -41 42 C-36.5021065 36.60809603 -31.73873458 31.60608316 -26.7578125 26.66015625 C-25.98944061 25.89319931 -25.22106873 25.12624237 -24.42941284 24.33604431 C-21.99696491 21.9091526 -19.56104678 19.48577873 -17.125 17.0625 C-15.46591448 15.40843514 -13.80705798 13.75414055 -12.1484375 12.09960938 C-8.10160291 8.06374567 -4.05192047 4.03075723 0 0 Z " fill="#281B5E" transform="translate(253,591)"/>
<path d="M0 0 C1.26953125 1.29296875 1.26953125 1.29296875 2.8125 3.1875 C6.18646519 7.16976919 9.78731594 10.83901287 13.5 14.5 C16.9289202 17.88950733 20.32266526 21.25200852 23.4375 24.9375 C27.31199823 29.5111558 31.62077472 33.64552287 35.87768555 37.8581543 C39.50733173 41.46449929 42.96436763 45.1384553 46.26953125 49.046875 C49.97219659 53.22595552 54.01758995 57.08970603 58 61 C65.02305029 55.25911114 71.3234361 48.80306544 77.71484375 42.3828125 C78.93773316 41.15805511 80.1608457 39.93352047 81.38417053 38.709198 C84.58385956 35.50571366 87.78053248 32.29923634 90.9765625 29.09210205 C94.246212 25.81217384 97.5187384 22.53511874 100.79101562 19.2578125 C107.19681119 12.84133235 113.59942049 6.421683 120 0 C123.31613882 1.44580966 125.49185728 3.24829792 128.03417969 5.80712891 C128.81468689 6.58778717 129.59519409 7.36844543 130.39935303 8.17276001 C131.23178528 9.01551483 132.06421753 9.85826965 132.921875 10.7265625 C133.78186096 11.58937836 134.64184692 12.45219421 135.52789307 13.34115601 C138.2733231 16.09778029 141.0117169 18.86127799 143.75 21.625 C145.61021783 23.49524857 147.47088946 25.36504589 149.33203125 27.234375 C153.89329945 31.8176936 158.44881011 36.40667478 163 41 C157.25911114 48.02305029 150.80306544 54.3234361 144.3828125 60.71484375 C143.15805511 61.93773316 141.93352047 63.1608457 140.709198 64.38417053 C137.50571366 67.58385956 134.29923634 70.78053248 131.09210205 73.9765625 C127.81217384 77.246212 124.53511874 80.5187384 121.2578125 83.79101562 C114.84133235 90.19681119 108.421683 96.59942049 102 103 C103.60995735 107.05621997 106.49888667 109.73260298 109.56713867 112.71484375 C110.41854683 113.55464279 110.41854683 113.55464279 111.28715515 114.41140747 C112.51712632 115.62375365 113.74929026 116.83387831 114.9833889 118.04202271 C116.93394318 119.95315155 118.87687812 121.87171912 120.81770325 123.79272461 C126.33555263 129.25251917 131.86299317 134.70244989 137.4050293 140.13769531 C140.79602778 143.46440462 144.17485127 146.80307078 147.54619789 150.14968872 C148.83464451 151.4238408 150.12775393 152.69329512 151.42549706 153.95797729 C153.23550783 155.72248895 155.02970386 157.50172295 156.82104492 159.28515625 C157.63523895 160.06767258 157.63523895 160.06767258 158.46588135 160.86599731 C161.98481615 164.41390525 161.98481615 164.41390525 162.05453491 167.1050415 C160.73883384 169.4693055 159.23207187 171.12707995 157.30639648 173.03417969 C156.52566269 173.81468689 155.74492889 174.59519409 154.9405365 175.39935303 C154.09262039 176.23178528 153.24470428 177.06421753 152.37109375 177.921875 C151.50686295 178.78186096 150.64263214 179.64184692 149.75221252 180.52789307 C146.98759388 183.27570575 144.21273138 186.01291036 141.4375 188.75 C139.56246749 190.60998825 137.68810982 192.47065707 135.81445312 194.33203125 C131.21743983 198.89594973 126.61197045 203.45119938 122 208 C117.90379366 206.37641304 115.16552101 203.43319604 112.12988281 200.35693359 C111.55383804 199.78118088 110.97779327 199.20542816 110.3842926 198.61222839 C108.48578963 196.71233463 106.59446478 194.80546009 104.703125 192.8984375 C103.38648418 191.57806566 102.06940043 190.25813536 100.75189209 188.93862915 C97.28854963 185.46765724 93.83125582 181.9907207 90.37518311 178.51251221 C86.8462002 174.96305615 83.3115358 171.41926799 79.77734375 167.875 C72.84598692 160.92220537 65.92100623 153.96309691 59 147 C51.97694971 152.74088886 45.6765639 159.19693456 39.28515625 165.6171875 C38.06226684 166.84194489 36.8391543 168.06647953 35.61582947 169.290802 C32.41614044 172.49428634 29.21946752 175.70076366 26.0234375 178.90789795 C22.753788 182.18782616 19.4812616 185.46488126 16.20898438 188.7421875 C9.80318881 195.15866765 3.40057951 201.578317 -3 208 C-6.31613882 206.55419034 -8.49185728 204.75170208 -11.03417969 202.19287109 C-11.81468689 201.41221283 -12.59519409 200.63155457 -13.39935303 199.82723999 C-14.23178528 198.98448517 -15.06421753 198.14173035 -15.921875 197.2734375 C-16.78186096 196.41062164 -17.64184692 195.54780579 -18.52789307 194.65884399 C-21.2733231 191.90221971 -24.0117169 189.13872201 -26.75 186.375 C-28.61021783 184.50475143 -30.47088946 182.63495411 -32.33203125 180.765625 C-36.89329945 176.1823064 -41.44881011 171.59332522 -46 167 C-40.25911114 159.97694971 -33.80306544 153.6765639 -27.3828125 147.28515625 C-26.15805511 146.06226684 -24.93352047 144.8391543 -23.709198 143.61582947 C-20.50571366 140.41614044 -17.29923634 137.21946752 -14.09210205 134.0234375 C-10.81217384 130.753788 -7.53511874 127.4812616 -4.2578125 124.20898438 C2.15866765 117.80318881 8.578317 111.40057951 15 105 C13.47396585 101.78369859 11.90199229 99.71230701 9.3125 97.25 C6.68215367 94.69010938 4.1822473 92.11472618 1.8125 89.3125 C-1.44430063 85.51664272 -4.9461273 82.01377824 -8.5 78.5 C-12.53299929 74.51224541 -16.39402474 70.4850508 -20.0625 66.15625 C-22.76034753 63.15380678 -25.63098164 60.33800412 -28.5 57.5 C-39.72286749 46.36187563 -39.72286749 46.36187563 -42 43 C-42 40 -42 40 -40.49490356 38.12068176 C-39.79034027 37.41674789 -39.08577698 36.71281403 -38.35986328 35.98754883 C-37.56548859 35.18694534 -36.77111389 34.38634186 -35.95266724 33.56147766 C-35.08399017 32.70201035 -34.21531311 31.84254303 -33.3203125 30.95703125 C-32.43721405 30.0734343 -31.5541156 29.18983734 -30.64425659 28.27946472 C-28.77299728 26.41054926 -26.89910148 24.54483307 -25.02001953 22.68383789 C-22.60813561 20.29465765 -20.20749836 17.89454524 -17.8103199 15.49062061 C-15.52719445 13.20335664 -13.23604529 10.92417258 -10.9453125 8.64453125 C-10.0806839 7.77899124 -9.2160553 6.91345123 -8.32522583 6.02168274 C-7.52454681 5.23053574 -6.7238678 4.43938873 -5.89892578 3.62426758 C-4.83969406 2.57194695 -4.83969406 2.57194695 -3.75906372 1.49836731 C-2 0 -2 0 0 0 Z " fill="#291C5E" transform="translate(631,593)"/>
<path d="M0 0 C35.71424949 -1.31517563 71.42414719 -2.31415563 107.15777006 -2.91072378 C111.41047642 -2.98198314 115.66313557 -3.05576247 119.91577148 -3.13110352 C120.76211684 -3.14605521 121.6084622 -3.1610069 122.48045439 -3.17641168 C134.3730581 -3.3917346 146.25487116 -3.74302411 158.14043172 -4.20285778 C178.5697782 -4.99308086 198.98795638 -5.5261772 219.43359375 -5.56640625 C220.61467489 -5.56960478 220.61467489 -5.56960478 221.81961626 -5.57286793 C291.66464286 -5.69621733 291.66464286 -5.69621733 318.45387268 20.59645081 C345 48.19953076 345 48.19953076 345 58 C309.28575051 59.31517563 273.57585281 60.31415563 237.84222994 60.91072378 C233.58952358 60.98198314 229.33686443 61.05576247 225.08422852 61.13110352 C224.23788316 61.14605521 223.3915378 61.1610069 222.51954561 61.17641168 C210.6269419 61.3917346 198.74512884 61.74302411 186.85956828 62.20285778 C166.4302218 62.99308086 146.01204362 63.5261772 125.56640625 63.56640625 C124.77901882 63.5685386 123.99163139 63.57067096 123.18038374 63.57286793 C53.33535714 63.69621733 53.33535714 63.69621733 26.54612732 37.40354919 C0 9.80046924 0 9.80046924 0 0 Z " fill="#CF23CA" transform="translate(50,387)"/>
</svg>
